# xmcd CD database file
# Copyright (C) 1995-1998 Ti Kan
#
# Track frame offsets:
#	150
#	20089
#	40085
#	58694
#	89381
#	109291
#	134753
#	159762
#	178188
#	196566
#	219602
#	236771
#	257441
#	275491
#
# Disc length: 3910 seconds
#
# Revision: 5
# Processed by: cddbd v1.5.2PL0 Copyright (c) Steve Scherf et al.
# Submitted via: CDex 1.40Beta3
#
DISCID=c60f440e
DTITLE=Varios - Good Times 2005
DYEAR=2002
DGENRE=Country
TTITLE0=Anita Baker - Sweet Love
TTITLE1=Toni Braxton - Un-Break My Heart
TTITLE2=Lara Fabian - Love By Grace
TTITLE3=George Miche - Jesus To A Child
TTITLE4=Lionel Richie - Lady
TTITLE5=Kool and The Gang - Cherish
TTITLE6=Spandau Ballet - True
TTITLE7=Chris de Burgh - The Lady In Red
TTITLE8=Marvin Gaye - Sexual Healing
TTITLE9=Gwen Guthrie - You Touched My Life
TTITLE10=Chicago - You're The Inspiration
TTITLE11=N'SYNC - Sailing
TTITLE12=No Mercy - Baby, Come Back
TTITLE13=EZ3 feat. Fab - My Love
EXTD=YEAR: 2002 ID3G:   2
EXTT0=
EXTT1=
EXTT2=
EXTT3=
EXTT4=
EXTT5=
EXTT6=
EXTT7=
EXTT8=
EXTT9=
EXTT10=
EXTT11=
EXTT12=
EXTT13=
PLAYORDER=
